<svg width="1399" height="810" viewBox="0 0 1399 810" fill="none" xmlns="http://www.w3.org/2000/svg">
<rect x="1191.65" y="94.3988" width="448.667" height="111.576" rx="53.1316" transform="rotate(-38 1191.65 94.3988)" fill="url(#paint0_linear_233_21)" fill-opacity="0.05"/>
<rect x="838.033" y="498.199" width="448.667" height="111.576" rx="53.1316" transform="rotate(-38 838.033 498.199)" fill="url(#paint1_linear_233_21)" fill-opacity="0.05"/>
<rect x="681" y="806.953" width="448.667" height="111.576" rx="53.1316" transform="rotate(-38 681 806.953)" fill="url(#paint2_linear_233_21)" fill-opacity="0.05"/>
<rect x="1069.45" y="133.952" width="448.667" height="111.576" rx="53.1316" transform="rotate(-38 1069.45 133.952)" fill="#D9D9D9" fill-opacity="0.05"/>
<rect x="666.241" y="458.055" width="448.667" height="111.576" rx="53.1316" transform="rotate(-38 666.241 458.055)" fill="url(#paint3_linear_233_21)" fill-opacity="0.05"/>
<rect x="666.241" y="149.892" width="448.667" height="111.576" rx="53.1316" transform="rotate(-38 666.241 149.892)" fill="url(#paint4_linear_233_21)" fill-opacity="0.05"/>
<rect x="1147.97" y="430.309" width="448.667" height="111.576" rx="53.1316" transform="rotate(-38 1147.97 430.309)" fill="#D9D9D9" fill-opacity="0.05"/>
<rect x="1005.69" y="737.882" width="448.667" height="111.576" rx="53.1316" transform="rotate(-38 1005.69 737.882)" fill="#D9D9D9" fill-opacity="0.05"/>
<path d="M0.915039 720.524C17.4449 695.493 209.309 466.673 324.428 438.631C439.546 410.59 618.32 640.469 822.389 612.49C1047.78 581.587 1056.58 287.092 1281.68 254.146C1347.61 244.497 1452.29 254.146 1452.29 254.146M230.562 678.609C230.562 678.609 393.36 575.097 505.666 588.285C588.953 598.066 617.128 669.411 700.482 678.609C916.998 702.501 880.264 373.682 1062.37 254.146C1189.87 170.452 1424.55 108.034 1424.55 108.034M77.3656 793.728C77.3656 793.728 335.979 720.03 505.666 720.524C672.512 721.01 768.436 846.892 926.586 793.728C1074.31 744.068 1058.57 553.084 1208.77 511.54C1289.99 489.077 1424.55 511.54 1424.55 511.54" stroke="url(#paint5_linear_233_21)" stroke-opacity="0.5" stroke-width="1.1807"/>
<path d="M209.899 751.813C226.429 726.782 418.294 497.962 533.412 469.92C648.531 441.878 827.305 671.758 1031.37 643.778C1256.76 612.876 1265.57 318.381 1490.67 285.435C1556.59 275.786 1661.28 285.435 1661.28 285.435M439.546 709.898C439.546 709.898 602.345 606.386 714.65 619.574C797.937 629.355 826.112 700.7 909.466 709.898C1125.98 733.789 1089.25 404.971 1271.35 285.435C1398.85 201.741 1633.53 139.323 1633.53 139.323M286.35 825.016C286.35 825.016 544.964 751.319 714.65 751.813C881.496 752.298 977.42 878.181 1135.57 825.016C1283.3 775.357 1267.55 584.373 1417.76 542.828C1498.97 520.366 1633.53 542.828 1633.53 542.828" stroke="url(#paint6_linear_233_21)" stroke-opacity="0.5" stroke-width="1.1807"/>
<defs>
<linearGradient id="paint0_linear_233_21" x1="1559.08" y1="133.879" x2="970.774" y2="129.359" gradientUnits="userSpaceOnUse">
<stop stop-color="#D9D9D9"/>
<stop offset="1" stop-color="#D9D9D9" stop-opacity="0"/>
</linearGradient>
<linearGradient id="paint1_linear_233_21" x1="1205.46" y1="537.679" x2="617.153" y2="533.16" gradientUnits="userSpaceOnUse">
<stop stop-color="#D9D9D9"/>
<stop offset="1" stop-color="#D9D9D9" stop-opacity="0"/>
</linearGradient>
<linearGradient id="paint2_linear_233_21" x1="982.268" y1="861.478" x2="406.692" y2="857.918" gradientUnits="userSpaceOnUse">
<stop stop-color="#D9D9D9"/>
<stop offset="1" stop-color="#D9D9D9" stop-opacity="0"/>
</linearGradient>
<linearGradient id="paint3_linear_233_21" x1="1096.42" y1="509.16" x2="596.699" y2="515.422" gradientUnits="userSpaceOnUse">
<stop stop-color="#D9D9D9"/>
<stop offset="1" stop-color="#D9D9D9" stop-opacity="0"/>
</linearGradient>
<linearGradient id="paint4_linear_233_21" x1="1096.42" y1="200.996" x2="596.699" y2="207.258" gradientUnits="userSpaceOnUse">
<stop stop-color="#D9D9D9"/>
<stop offset="1" stop-color="#D9D9D9" stop-opacity="0"/>
</linearGradient>
<linearGradient id="paint5_linear_233_21" x1="1392.96" y1="258.574" x2="-23.8798" y2="728.494" gradientUnits="userSpaceOnUse">
<stop stop-color="white"/>
<stop offset="1" stop-color="white" stop-opacity="0"/>
</linearGradient>
<linearGradient id="paint6_linear_233_21" x1="1601.95" y1="289.863" x2="185.105" y2="759.782" gradientUnits="userSpaceOnUse">
<stop stop-color="white"/>
<stop offset="1" stop-color="white" stop-opacity="0"/>
</linearGradient>
</defs>
</svg>
